<svg width="87" height="20" viewBox="0 0 87 20" fill="none" xmlns="http://www.w3.org/2000/svg">
<path d="M24.9949 3.59961C28.3723 3.59961 31.0701 6.43732 31.0701 9.86328C31.0598 10.231 31.039 10.6303 30.9978 10.998H21.1238C21.5769 12.8895 23.0797 14.3191 25.0359 14.3193C26.1377 14.3193 27.2194 13.8351 27.9402 13.0049L30.3289 13.0576C29.2786 15.0962 27.271 16.3992 24.9441 16.3994C21.5461 16.3994 18.8787 13.3941 18.8787 9.98926C18.8787 6.4793 21.5043 3.59973 24.9949 3.59961ZM24.9656 5.68066C23.0297 5.68066 21.2376 7.23593 21.114 9.24316H28.8162C28.6926 7.24657 26.9116 5.68087 24.9656 5.68066Z" fill="#333333"/>
<path d="M41.011 16.0001V9.44583C41.011 7.40347 40.4022 5.67372 38.0288 5.67372C35.8308 5.67372 34.8814 7.39305 34.8814 9.42499V16.0001H32.6421V3.93354H34.7369V5.21523H34.7782C35.645 4.05859 36.8936 3.6001 38.2764 3.6001C39.9791 3.6001 41.5786 4.27741 42.5073 5.75708C43.0852 6.67406 43.2606 7.7786 43.2606 8.85188V16.0001H41.011Z" fill="#333333"/>
<path d="M57.0233 16.0986H54.953V14.3809H54.912C53.9185 15.7753 52.3351 16.4004 50.6688 16.4004C47.0777 16.4004 44.4386 13.7051 44.4384 10.1152C44.4384 6.50431 47.0362 3.71484 50.6688 3.71484C52.1798 3.71487 53.7841 4.29813 54.7362 5.51562H54.7772V0H57.0233V16.0986ZM50.7919 5.78613C48.4116 5.78613 46.6826 7.74205 46.6825 10.0938C46.6825 12.3518 48.4833 14.3397 50.7704 14.3398C53.1094 14.3398 54.9413 12.4247 54.9413 10.0938C54.9515 7.67977 53.2444 5.78637 50.7919 5.78613Z" fill="#333333"/>
<path d="M63.4825 20.0001H61.1901L62.912 15.7541L58.2048 4H60.589L64.0633 13.3101L67.6191 4H70.0032L63.4825 20.0001Z" fill="#333333"/>
<path d="M76.494 3.59961C80.0137 3.59968 82.9833 6.36128 82.9833 9.96289C82.9833 13.4385 80.1382 16.3993 76.494 16.3994C72.9536 16.3994 70.0048 13.5225 70.0048 9.9209C70.0048 6.34024 73.0262 3.59961 76.494 3.59961ZM76.494 5.68945C74.1477 5.68947 72.2578 7.62118 72.2577 9.99414C72.2577 12.3672 74.1476 14.3203 76.494 14.3203C78.8612 14.3203 80.7302 12.3466 80.7303 9.97363C80.72 7.60053 78.8301 5.68945 76.494 5.68945Z" fill="#333333"/>
<path d="M84.5543 16.0001V0H86.914V16.0001H84.5543Z" fill="#333333"/>
<path d="M2.19624 13.477C2.28817 13.8612 2.41075 14.1727 2.55376 14.4115C2.69677 14.6503 2.88065 14.8579 3.09516 15.0552C3.8 15.6782 4.68871 16.0001 5.74086 16.0001C6.7828 16.0001 7.76344 15.7405 8.65215 15.2421V13.0825C7.7328 13.6328 6.8543 13.9131 6.02688 13.9131C4.90323 13.9131 4.32097 13.2174 4.32097 11.8365V5.94941H8.04946V3.86244H4.33118V0H2.13495V3.85206H0V5.93902H2.04301V11.2758C2.04301 12.3557 2.09409 13.0928 2.19624 13.477Z" fill="#333333"/>
<path d="M15.7761 5.78286C16.4687 5.78286 17.2337 6.16202 18.0503 6.92035L19.2701 4.9118C18.2777 4.01001 17.0786 3.6001 16.3757 3.6001H16.2206C15.4143 3.6001 14.0705 3.6001 12.9748 5.3627L12.9334 5.43443L12.9438 3.83579H10.6179V15.6001H12.9438V9.45153C12.9438 8.46775 13.2229 7.60694 13.7811 6.87936C14.3393 6.15177 15.0112 5.78286 15.7761 5.78286Z" fill="#333333"/>
</svg>
